<svg width="24" height="24" viewBox="0 0 24 24" fill="none" xmlns="http://www.w3.org/2000/svg">
<path fill-rule="evenodd" clip-rule="evenodd" d="M5.62211 12.4781C5.68541 12.4831 5.74944 12.4856 5.8141 12.4856C5.87083 12.4855 5.92707 12.4835 5.98276 12.4796C6.60932 12.5144 7.22244 12.7165 7.74538 13.0761C7.86869 13.159 8.03978 13.1318 8.12753 13.0152C8.21528 12.8986 8.18646 12.7369 8.06316 12.6539C7.74326 12.4364 7.39486 12.2692 7.03077 12.1539C7.67495 11.7707 8.10326 11.0929 8.10424 10.3204C8.10424 9.12455 7.07891 8.15515 5.8141 8.15515C4.54929 8.15515 3.52396 9.12455 3.52396 10.3204C3.52396 11.0891 3.94768 11.7643 4.58636 12.1485C4.53319 12.1651 4.48026 12.1828 4.42761 12.2016C3.21218 12.6366 2.30818 13.6184 2.02004 14.8166C1.96263 15.0721 2.03005 15.3385 2.20358 15.5417C2.38193 15.7562 2.65464 15.8813 2.94321 15.881H6.30994V15.8914C6.46123 15.8914 6.58388 15.7754 6.58388 15.6324C6.58388 15.4894 6.46123 15.3734 6.30994 15.3734H2.92952C2.80784 15.3736 2.69275 15.3211 2.61722 15.2309C2.54445 15.1471 2.51619 15.0365 2.54052 14.9305C2.78638 13.8971 3.56567 13.0499 4.61407 12.6764C4.9416 12.5597 5.28167 12.4941 5.62211 12.4781ZM5.90199 11.9655C5.84044 11.964 5.77882 11.9639 5.71717 11.9651C4.80008 11.9175 4.07193 11.1993 4.07193 10.3204C4.07193 9.41064 4.85197 8.67315 5.81419 8.67315V8.6602C6.27865 8.66018 6.72389 8.83551 7.05102 9.14723C7.37816 9.45895 7.5601 9.88126 7.55645 10.3204C7.55645 11.2023 6.82342 11.9223 5.90199 11.9655ZM16.9743 12.152C16.3324 11.7683 15.9061 11.0914 15.9061 10.3204C15.9061 9.12455 16.9314 8.15515 18.1962 8.15515C19.461 8.15515 20.4864 9.12455 20.4864 10.3204C20.4854 11.0911 20.059 11.7676 19.4173 12.1513C19.4712 12.1682 19.5248 12.1863 19.5781 12.2055C20.789 12.6421 21.689 13.6219 21.9765 14.8165C22.0399 15.075 21.9731 15.3466 21.7957 15.5521C21.6147 15.7621 21.3426 15.8831 21.0561 15.881H17.6894C17.5381 15.881 17.4154 15.7651 17.4154 15.622C17.4154 15.479 17.5381 15.363 17.6894 15.363H21.0561C21.1785 15.3633 21.2945 15.3109 21.3711 15.2206C21.4429 15.1363 21.4702 15.0257 21.4451 14.9201C21.1981 13.8912 20.4218 13.048 19.3779 12.6749C19.0593 12.561 18.7288 12.4956 18.3975 12.4771C18.3312 12.4827 18.264 12.4855 18.1962 12.4856C18.1295 12.4856 18.0635 12.4829 17.9982 12.4776C17.3796 12.5135 16.7744 12.7127 16.2566 13.0657C16.1348 13.1217 15.9878 13.0851 15.9111 12.9795C15.8343 12.8738 15.8508 12.731 15.9498 12.6435C16.2678 12.4297 16.6134 12.2653 16.9743 12.152ZM18.2798 11.9657C18.2243 11.9646 18.1687 11.9646 18.1132 11.9658C17.1895 11.9248 16.4539 11.2038 16.4539 10.3204C16.4539 9.41064 17.234 8.67315 18.1962 8.67315V8.6602C18.6606 8.66018 19.1059 8.83551 19.433 9.14723C19.7602 9.45895 19.9421 9.88126 19.9384 10.3204C19.9384 11.2036 19.2032 11.9245 18.2798 11.9657Z" fill="#00C8FF"/>
<path fill-rule="evenodd" clip-rule="evenodd" d="M10.6908 12.1958C10.1116 11.9002 9.64173 11.4219 9.3787 10.8223C8.92558 9.78945 9.17548 8.60018 10.0118 7.80949C10.8481 7.0188 12.106 6.78253 13.1984 7.21094C14.2909 7.63934 15.0027 8.64797 15.0016 9.76618C14.9995 10.8168 14.378 11.7299 13.464 12.1965C13.4723 12.1988 13.4805 12.2011 13.4888 12.2034C15.2298 12.6869 16.5586 14.0222 16.963 15.6946C17.0378 16.0105 16.9561 16.3414 16.7411 16.5933C16.5196 16.8517 16.1861 17.0012 15.8343 17H8.49275C8.09428 16.9999 7.7185 16.8247 7.47592 16.5258C7.23333 16.2269 7.15152 15.8384 7.25454 15.4745C7.48903 14.6738 7.94256 13.9458 8.56945 13.3636C9.174 12.8042 9.9056 12.4092 10.6908 12.1958ZM12.1248 12.0114C12.0937 12.0111 12.0627 12.0111 12.0316 12.0113C11.4295 11.9999 10.841 11.7722 10.3982 11.3531C9.71914 10.7103 9.51661 9.74408 9.88509 8.90507C10.2536 8.06607 11.1204 7.51963 12.0813 7.52068C13.392 7.52211 14.4536 8.52704 14.4536 9.76619C14.4536 10.6747 13.8747 11.4936 12.9868 11.841C12.7078 11.9502 12.4155 12.0061 12.1248 12.0114ZM12.0814 12.5271C10.9109 12.5228 9.78619 12.9567 8.95301 13.734C8.39478 14.2525 7.99126 14.9011 7.78328 15.6144C7.72252 15.8185 7.7683 16.0379 7.90656 16.2049C8.04423 16.3802 8.26188 16.483 8.49279 16.482H15.8344C16.0207 16.4822 16.1967 16.401 16.311 16.2619C16.4226 16.1332 16.4651 15.9631 16.4261 15.8008C15.9725 13.8793 14.1638 12.5164 12.0814 12.5271Z" fill="#00377D"/>
</svg>
